<svg width="156" height="44" viewBox="0 0 156 44" fill="none" xmlns="http://www.w3.org/2000/svg">
<path d="M0 22C0 9.84974 9.84974 0 22 0H134C146.15 0 156 9.84974 156 22C156 34.1503 146.15 44 134 44H22C9.84974 44 0 34.1503 0 22Z" fill="#383838"/>
<path fill-rule="evenodd" clip-rule="evenodd" d="M134 2H22C10.9543 2 2 10.9543 2 22C2 33.0457 10.9543 42 22 42H134C145.046 42 154 33.0457 154 22C154 10.9543 145.046 2 134 2ZM22 0C9.84974 0 0 9.84974 0 22C0 34.1503 9.84974 44 22 44H134C146.15 44 156 34.1503 156 22C156 9.84974 146.15 0 134 0H22Z" fill="#FCC33C"/>
<path d="M37.5815 23.4066C37.5815 23.3714 37.5869 23.337 37.5905 23.3018C36.6615 22.5754 35.5001 22.2192 34.3277 22.3012C33.1553 22.3833 32.0538 22.8978 31.233 23.7467C30.4122 24.5956 29.9296 25.7195 29.877 26.9044C29.8245 28.0893 30.2057 29.2524 30.948 30.1719C34.5185 29.0881 37.2469 26.4691 37.5815 23.4066Z" fill="#FCC33C"/>
<path fill-rule="evenodd" clip-rule="evenodd" d="M25.7855 24.2015C25.7842 25.2258 25.9844 26.2402 26.3744 27.1858C26.7644 28.1315 27.3365 28.9896 28.0575 29.7105C28.5588 29.8249 29.0703 29.8869 29.5841 29.8957C28.7463 28.7818 28.3407 27.3973 28.4435 26.0026C28.5464 24.608 29.1506 23.2994 30.1425 22.3229C31.1345 21.3464 32.4458 20.7694 33.8297 20.7004C35.2137 20.6314 36.575 21.0751 37.6575 21.9482C37.6423 19.9694 37.1331 18.5163 36.657 17.5789C36.5416 17.3531 36.4244 17.1499 36.3089 16.9656C35.1407 16.5052 33.8789 16.339 32.6328 16.4816C31.3866 16.6241 30.1936 17.0711 29.1572 17.7837C28.1207 18.4964 27.272 19.4533 26.6845 20.5715C26.097 21.6898 25.7884 22.9357 25.7855 24.2015Z" fill="#FCC33C"/>
<path fill-rule="evenodd" clip-rule="evenodd" d="M21.0403 15.5945C19.3421 16.717 18.0501 18.3647 17.358 20.2907C17.2025 20.7453 17.0828 21.2116 17 21.6852C17 21.7755 17 21.8658 17 21.9561C16.9944 24.4743 17.7205 26.9388 19.0886 29.0447C19.9709 29.5631 22.4461 30.6911 27.3212 30.7065C28.615 30.711 29.9016 30.5127 31.1351 30.1185C30.6972 30.1868 30.2547 30.2203 29.8116 30.2188C27.741 30.2136 25.749 29.4176 24.2362 27.9906C22.7234 26.5637 21.8019 24.6117 21.6569 22.5271C21.5119 20.4424 22.1543 18.3796 23.4547 16.7534C24.7552 15.1272 26.6175 14.0582 28.6671 13.7612C28.5239 13.7612 28.3745 13.7557 28.2197 13.7557C26.2036 13.7557 23.3275 14.0754 21.0403 15.5945Z" fill="#FCC33C"/>
<path fill-rule="evenodd" clip-rule="evenodd" d="M22.3089 11.4459C17.8659 14.7568 17.151 19.201 17.0382 20.7364C17.1678 20.3126 17.3254 19.898 17.5098 19.4955C17.788 18.8532 18.1455 18.2491 18.5738 17.6973C19.233 16.818 20.0377 16.06 20.9523 15.4567C21.2947 15.2307 21.6517 15.028 22.0207 14.8498C23.8928 13.8916 25.9581 13.627 27.6941 13.6017C28.5484 13.5765 29.4035 13.6097 30.2533 13.701C30.8797 13.7516 31.3415 13.7958 31.5446 13.766C32.792 13.5854 33.8265 12.7347 33.8265 11.4631C33.8265 10.2466 32.7106 9.29558 31.6967 9.12308C31.1238 9.03738 30.5452 8.99631 29.9661 9.00026C28.0699 9.00026 25.0561 9.39854 22.3089 11.4459Z" fill="#FCC33C"/>
<path fill-rule="evenodd" clip-rule="evenodd" d="M38.216 23.4777C37.9842 25.5973 36.7332 27.5797 34.6939 29.0599C32.6545 30.5401 30.0594 31.3457 27.3561 31.3457H27.3123C23.6147 31.3339 21.2505 30.7054 19.8743 30.1436C22.4693 33.5051 27.6657 35.8062 32.4809 34.6204C41.4402 32.4132 42.4719 23.8398 39.9977 20.0431C39.3067 18.9883 38.3891 18.1043 37.3131 17.4565C37.969 18.8076 38.5077 20.7918 38.216 23.4777Z" fill="#FCC33C"/>
<path d="M106.661 25.9489C106.841 26.437 107.154 26.5955 107.919 26.5955H107.959C108.101 26.6029 108.242 26.5807 108.375 26.5304C108.507 26.48 108.628 26.4026 108.728 26.3032C108.828 26.2037 108.907 26.0845 108.957 25.9532C109.008 25.8219 109.031 25.6815 109.023 25.5411V22.9566C109.023 20.6109 107.88 19.7399 106.097 19.7399C104.075 19.7399 103.302 20.2742 103.302 21.0063C103.302 21.5869 103.701 22.034 104.26 22.034C104.713 22.034 104.952 21.7971 105.565 21.7971C105.949 21.7971 106.296 21.8238 106.375 22.2584C103.755 22.4828 102.851 23.2861 102.851 24.6184C102.851 25.6729 103.57 26.7006 104.873 26.7006C105.565 26.7006 106.109 26.412 106.615 25.9489H106.661ZM106.356 24.4332C106.279 24.527 106.181 24.602 106.07 24.6524C105.959 24.7027 105.838 24.7271 105.716 24.7235C105.664 24.7292 105.612 24.7238 105.563 24.7077C105.514 24.6915 105.469 24.665 105.431 24.63C105.393 24.595 105.363 24.5523 105.343 24.5048C105.324 24.4573 105.315 24.4061 105.317 24.3548C105.317 24.077 105.543 23.8401 106.356 23.7225V24.4332ZM100.453 19.7399C98.4972 19.7399 96.7555 21.0063 96.7555 23.2202C96.7555 25.4342 98.2582 26.7006 100.201 26.7006C101.598 26.7006 102.369 26.1662 102.369 25.5143C102.369 24.8945 101.997 24.4082 101.438 24.4082C101.132 24.4082 100.945 24.5864 100.519 24.5864C99.9478 24.5864 99.4697 24.052 99.4697 23.2149C99.4697 22.3778 99.8687 21.8452 100.613 21.8452C100.985 21.8452 101.132 22.0019 101.411 22.0019C101.97 22.0019 102.342 21.5157 102.342 20.8958C102.344 20.2422 101.652 19.7399 100.453 19.7399ZM93.7412 25.9489C93.9209 26.437 94.2337 26.5955 94.9994 26.5955H95.0389C95.1806 26.6029 95.3223 26.5807 95.4549 26.5304C95.5874 26.48 95.7077 26.4026 95.808 26.3032C95.9084 26.2037 95.9865 26.0845 96.0373 25.9532C96.0881 25.8219 96.1105 25.6815 96.103 25.5411V22.9566C96.103 20.6109 94.9598 19.7399 93.1768 19.7399C91.1546 19.7399 90.3835 20.2742 90.3835 21.0063C90.3835 21.5869 90.7825 22.034 91.3416 22.034C91.7927 22.034 92.0336 21.7971 92.6447 21.7971C93.0312 21.7971 93.3763 21.8238 93.4572 22.2584C90.8347 22.4828 89.9306 23.2861 89.9306 24.6184C89.9306 25.6729 90.6495 26.7006 91.9527 26.7006C92.6447 26.7006 93.1911 26.412 93.6962 25.9489H93.7412ZM93.4356 24.4332C93.3592 24.5272 93.2617 24.6024 93.151 24.6527C93.0403 24.7031 92.9193 24.7273 92.7975 24.7235C92.746 24.7292 92.6939 24.7238 92.6447 24.7077C92.5955 24.6915 92.5504 24.665 92.5125 24.63C92.4746 24.595 92.4448 24.5523 92.4251 24.5048C92.4054 24.4573 92.3963 24.4061 92.3985 24.3548C92.3985 24.077 92.6249 23.8401 93.4356 23.7225V24.4332ZM86.7383 26.7006C88.374 26.7006 89.465 25.9881 89.465 25.1189C89.4706 24.9685 89.4447 24.8186 89.3891 24.6786C89.3335 24.5385 89.2494 24.4114 89.1419 24.305C89.0344 24.1987 88.906 24.1155 88.7645 24.0606C88.6231 24.0057 88.4718 23.9804 88.32 23.9861C87.7628 23.9861 87.6963 24.4332 86.8299 24.4332C85.8863 24.4332 85.2338 23.6958 85.2338 22.1925C85.2338 20.9012 86.0462 20.1104 86.8515 20.1104C87.5166 20.1104 87.7305 20.4523 88.3146 20.4523C88.9276 20.4523 89.3805 20.0035 89.3805 19.2928C89.3805 18.4486 88.2895 17.843 86.785 17.843C84.6173 17.843 82.5143 19.446 82.5143 22.2958C82.5214 25.3166 84.5184 26.7006 86.7401 26.7006H86.7383ZM76.4335 24.5917C75.9553 24.5917 75.7684 24.1696 75.7684 23.2202C75.7684 22.2709 75.9481 21.8505 76.4335 21.8505C76.9188 21.8505 77.0985 22.246 77.0985 23.2202C77.0985 24.1945 76.9152 24.5917 76.4353 24.5917H76.4335ZM76.4335 26.7006C78.2165 26.7006 79.8127 25.4627 79.8127 23.2202C79.8127 20.9778 78.2183 19.7399 76.4353 19.7399C74.6522 19.7399 73.056 20.9867 73.056 23.2202C73.056 25.4538 74.654 26.7006 76.4353 26.7006H76.4335ZM71.0411 19.2394C71.8535 19.2394 72.4251 18.705 72.4251 17.973C72.4251 17.2409 71.8535 16.6959 71.0411 16.6959C70.2286 16.6959 69.6571 17.2303 69.6571 17.973C69.6571 18.7157 70.2304 19.2394 71.0411 19.2394ZM69.7164 25.5411C69.708 25.6817 69.7298 25.8225 69.7803 25.9542C69.8308 26.0859 69.9089 26.2055 70.0094 26.3051C70.11 26.4047 70.2307 26.4821 70.3636 26.5321C70.4964 26.5822 70.6385 26.6038 70.7805 26.5955H71.3197C71.4617 26.6041 71.6039 26.5827 71.7369 26.5327C71.87 26.4828 71.9908 26.4054 72.0914 26.3057C72.192 26.206 72.27 26.0863 72.3205 25.9545C72.3709 25.8227 72.3925 25.6818 72.3838 25.5411V20.9012C72.3927 20.7604 72.3714 20.6194 72.3211 20.4874C72.2707 20.3555 72.1927 20.2356 72.092 20.1359C71.9914 20.0361 71.8704 19.9588 71.7373 19.9089C71.6041 19.8591 71.4618 19.8379 71.3197 19.8468H70.7805C70.6385 19.8382 70.4963 19.8596 70.3632 19.9095C70.2302 19.9595 70.1094 20.0368 70.0088 20.1365C69.9082 20.2362 69.8301 20.3559 69.7797 20.4877C69.7293 20.6196 69.7077 20.7605 69.7164 20.9012V25.5411ZM64.7482 26.7006C65.0445 26.6917 65.336 26.624 65.6055 26.5017C65.875 26.3793 66.1171 26.2047 66.3174 25.9881H66.3713C66.5313 26.4619 66.8494 26.5937 67.6205 26.5937H67.6745C67.8162 26.6011 67.9579 26.579 68.0904 26.5286C68.2229 26.4783 68.3432 26.4008 68.4436 26.3014C68.5439 26.202 68.622 26.0827 68.6729 25.9514C68.7237 25.8201 68.7461 25.6797 68.7386 25.5393V18.4486C68.7461 18.3081 68.7237 18.1677 68.6729 18.0364C68.622 17.9051 68.5439 17.7859 68.4436 17.6864C68.3432 17.587 68.2229 17.5096 68.0904 17.4592C67.9579 17.4089 67.8162 17.3867 67.6745 17.3941H67.1352C66.9942 17.3871 66.8532 17.4096 66.7216 17.4603C66.5899 17.511 66.4706 17.5886 66.3713 17.6882C66.2721 17.7877 66.1951 17.9069 66.1456 18.0379C66.096 18.169 66.0749 18.3089 66.0837 18.4486V19.4513L66.1898 20.3989C65.8339 19.9786 65.4025 19.7399 64.6835 19.7399C63.2743 19.7399 61.9963 21.033 61.9963 23.2202C62.0017 25.3558 63.0927 26.7006 64.7428 26.7006H64.7482ZM65.4402 24.5632C65.0142 24.5632 64.7212 24.2729 64.7212 23.1935C64.7212 22.1141 65.1203 21.8737 65.4923 21.8737C65.7071 21.8718 65.9153 21.9471 66.0783 22.0856V24.1927C66.0179 24.309 65.9253 24.4058 65.8113 24.4717C65.6973 24.5377 65.5667 24.57 65.4348 24.565L65.4402 24.5632ZM58.9316 25.9489C59.1114 26.437 59.4241 26.5955 60.1899 26.5955H60.2294C60.3711 26.6029 60.5128 26.5807 60.6453 26.5304C60.7778 26.48 60.8982 26.4026 60.9985 26.3032C61.0989 26.2037 61.177 26.0845 61.2278 25.9532C61.2786 25.8219 61.301 25.6815 61.2935 25.5411V22.9566C61.2935 20.6109 60.1503 19.7399 58.3672 19.7399C56.3451 19.7399 55.574 20.2742 55.574 21.0063C55.574 21.5869 55.973 22.034 56.5302 22.034C56.9832 22.034 57.2223 21.7971 57.8352 21.7971C58.2198 21.7971 58.5668 21.8238 58.6458 22.2584C56.0251 22.4828 55.121 23.2861 55.121 24.6184C55.121 25.6729 55.84 26.7006 57.1432 26.7006C57.8352 26.7006 58.3798 26.412 58.8867 25.9489H58.9316ZM58.6261 24.4332C58.5494 24.5269 58.4519 24.6018 58.3412 24.6522C58.2306 24.7025 58.1097 24.7269 57.988 24.7235C57.9365 24.7292 57.8843 24.7238 57.8351 24.7077C57.786 24.6915 57.7409 24.665 57.703 24.63C57.6651 24.595 57.6353 24.5523 57.6156 24.5048C57.5959 24.4573 57.5868 24.4061 57.5889 24.3548C57.5889 24.077 57.8136 23.8401 58.6261 23.7225V24.4332ZM53.018 23.2861C53.7765 22.8248 54.2762 22.0393 54.2762 20.8745C54.2762 18.6338 52.574 17.9997 50.6975 17.9997H48.3266C48.1849 17.9923 48.0431 18.0145 47.9105 18.0648C47.7779 18.1152 47.6575 18.1925 47.557 18.2919C47.4565 18.3914 47.3782 18.5106 47.3272 18.6419C47.2761 18.7732 47.2535 18.9136 47.2608 19.0541V25.5411C47.2524 25.6819 47.2742 25.8228 47.3248 25.9546C47.3754 26.0864 47.4537 26.2061 47.5544 26.3058C47.6552 26.4054 47.7761 26.4828 47.9092 26.5327C48.0423 26.5826 48.1846 26.604 48.3266 26.5955H48.8659C49.0078 26.6038 49.1499 26.5822 49.2828 26.5321C49.4157 26.4821 49.5364 26.4047 49.6369 26.3051C49.7374 26.2055 49.8155 26.0859 49.866 25.9542C49.9166 25.8225 49.9383 25.6817 49.93 25.5411V23.8543H50.5555L51.4201 25.6461C51.7526 26.3194 52.1912 26.5955 52.9497 26.5955H53.7873C53.8935 26.5887 53.9964 26.5561 54.0868 26.5005C54.1772 26.445 54.2524 26.3682 54.3057 26.277C54.3591 26.1857 54.3888 26.0829 54.3925 25.9775C54.3961 25.8721 54.3735 25.7675 54.3266 25.6729L53.018 23.2861ZM49.9192 20.0801H50.5447C51.3032 20.0801 51.7023 20.2903 51.7023 20.9493C51.7023 21.6083 51.3032 21.9645 50.5447 21.9645H49.9228L49.9192 20.0801Z" fill="#FCC33C"/>
<path d="M112.978 25.5303C112.978 26.1577 113.421 26.5982 114.051 26.5982H114.467C115.098 26.5982 115.541 26.1577 115.541 25.5303V24.6893C115.541 23.5813 115.326 22.2197 115.205 21.2051H115.259L116.051 23.1808L117.192 25.6237C117.514 26.3046 117.957 26.5982 118.708 26.5982H119.258C119.889 26.5982 120.332 26.1577 120.332 25.5303V18.909C120.332 18.2816 119.889 17.8411 119.258 17.8411H118.842C118.212 17.8411 117.769 18.2816 117.769 18.909V19.7634C117.769 20.8847 117.983 22.2864 118.104 23.2342H118.051L117.259 21.2452L116.118 18.8156C115.796 18.1347 115.353 17.8411 114.602 17.8411H114.051C113.421 17.8411 112.978 18.2816 112.978 18.909V25.5303Z" fill="#FCC33C"/>
<path d="M123.173 26.6783H123.71C124.354 26.6783 124.783 26.2512 124.783 25.6104V23.5813H126.608C127.253 23.5813 127.682 23.1541 127.682 22.5133V22.4599C127.682 21.8192 127.253 21.392 126.608 21.392H124.783V20.1372H127.038C127.682 20.1372 128.112 19.71 128.112 19.0692V18.9624C128.112 18.3483 127.682 17.8945 127.038 17.8945H123.173C122.529 17.8945 122.099 18.3483 122.099 18.9624V25.6104C122.099 26.2512 122.529 26.6783 123.173 26.6783Z" fill="#FCC33C"/>
<path d="M133.772 20.1372H135.007C135.584 20.1372 136 19.71 136 19.0692V18.9624C136 18.3216 135.584 17.8945 135.007 17.8945H129.854C129.263 17.8945 128.86 18.3216 128.86 18.9624V19.0692C128.86 19.71 129.263 20.1372 129.854 20.1372H131.088V25.5303C131.088 26.1711 131.518 26.5982 132.162 26.5982H132.699C133.343 26.5982 133.772 26.1711 133.772 25.5303V20.1372Z" fill="#FCC33C"/>
</svg>
